#!OML:ASF F:\VICON\USERDATA\INSTALL\rory3\rory3.ASF
:FULLY-SPECIFIED
:DEGREES
417
root 0.658474 18.3144 39.9313 -7.4464 -4.93616 2.8082
lowerback 16.0508 0.888966 -2.07124
upperback 0.44885 0.921466 1.43217
thorax -8.59985 0.560028 2.50477
lowerneck -10.1995 -0.278901 -3.00461
upperneck 31.8224 0.812027 -1.709
head 12.1563 -0.215368 -0.0149535
rclavicle 3.23025e-016 -1.03368e-014
rhumerus -35.0519 -13.3236 -74.4377
rradius 26.7753
rwrist 2.81184
rhand -14.7228 11.154
rfingers 7.12502
rthumb 11.4321 -18.5143
lclavicle 3.23025e-016 -1.03368e-014
lhumerus -41.385 5.09995 84.6432
lradius 34.8814
lwrist 4.43766
lhand -12.5888 50.8046
lfingers 7.12502
lthumb 13.4896 80.3477
rfemur -7.91486 1.98105 19.8558
rtibia 69.1181
rfoot 7.30369 -11.137
rtoes 14.3881
lfemur -8.64126 -3.448 -25.9566
ltibia 19.896
lfoot -1.84108 -0.274471
ltoes -5.36914
418
root 0.663362 18.3246 40.0715 -7.61298 -4.65576 3.07277
lowerback 16.3338 0.675696 -2.42378
upperback 0.674039 0.563575 1.3873
thorax -8.49456 0.396575 2.74019
lowerneck -11.0458 -0.170866 -2.74542
upperneck 31.9414 1.03837 -2.00127
head 12.3846 -0.129354 -0.142232
rclavicle 5.31749e-015 1.35174e-014
rhumerus -34.5872 -13.4344 -74.6974
rradius 26.4823
rwrist 3.28698
rhand -14.5143 11.3998
rfingers 7.12502
rthumb 11.6332 -18.2572
lclavicle 5.31749e-015 1.35174e-014
lhumerus -40.7508 5.33607 84.4046
lradius 35.0455
lwrist 4.30062
lhand -12.0279 51.2586
lfingers 7.12502
lthumb 14.0301 80.7651
rfemur -9.04703 1.30424 19.3388
rtibia 70.2524
rfoot 5.32338 -11.9708
rtoes 12.4113
lfemur -8.02385 -3.80522 -26.4161
ltibia 19.8705
lfoot -2.21435 -0.0271726
ltoes -4.64599
419
root 0.662404 18.3251 40.1885 -7.68049 -4.53486 3.1172
lowerback 17.1432 0.64157 -2.59647
upperback 0.0192193 0.480017 1.51603
thorax -9.66612 0.395179 3.00631
lowerneck -9.73518 -0.139478 -2.92411
upperneck 32.0369 1.09378 -2.0866
head 12.1499 -0.129961 -0.136389
rclavicle 3.09825e-016 -9.54166e-015
rhumerus -35.9836 -12.826 -74.407
rradius 26.6193
rwrist 3.25855
rhand -14.5736 11.5433
rfingers 7.12502
rthumb 11.576 -18.117
lclavicle 3.09825e-016 -9.54166e-015
lhumerus -41.7428 5.21645 84.3771
lradius 35.1784
lwrist 4.23934
lhand -11.8985 51.2642
lfingers 7.12502
lthumb 14.1548 80.762
rfemur -10.5037 0.84486 19.2315
rtibia 71.2892
rfoot 3.81029 -12.9114
rtoes 10.493
lfemur -7.62727 -3.90121 -26.5535
ltibia 20.153
lfoot -2.78598 0.114375
ltoes -4.88161
420
root 0.666869 18.3323 40.3463 -7.84497 -4.3767 3.17555
lowerback 17.02 0.534872 -2.66542
upperback -0.019176 0.334432 1.58588
thorax -9.62931 0.330927 3.15811
lowerneck -8.93892 -0.0510155 -2.97424
upperneck 31.7753 1.20893 -2.15952
head 11.8788 -0.0827926 -0.138894
rclavicle -1.22035e-014 -2.06736e-014
rhumerus -36.3682 -12.6486 -74.2887
rradius 26.543
rwrist 3.39797
rhand -14.5889 11.307
rfingers 7.12502
rthumb 11.5612 -18.3541
lclavicle -1.22035e-014 -2.06736e-014
lhumerus -41.9854 5.45392 84.2764
lradius 35.3564
lwrist 4.39965
lhand -12.5077 50.9126
lfingers 7.12502
lthumb 13.5677 80.4505
rfemur -11.4083 0.279037 18.992
rtibia 71.9766
rfoot 2.45724 -13.5506
rtoes 9.80234
lfemur -7.02927 -3.90201 -26.8018
ltibia 20.3103
lfoot -3.30668 0.196032
ltoes -5.29892
421
root 0.659854 18.3359 40.4873 -7.90466 -4.39214 2.96377
lowerback 16.399 0.4661 -2.55934
upperback 0.57385 0.284485 1.67091
thorax -8.62439 0.277644 3.19121
lowerneck -9.595 -0.0472484 -2.84789
upperneck 31.5811 1.24316 -2.26232
head 11.9375 -0.0664788 -0.19372
rclavicle 3.68994e-015 -1.35174e-014
rhumerus -35.3747 -13.4781 -74.3871
rradius 26.1922
rwrist 3.95684
rhand -14.2975 10.9324
rfingers 7.12502
rthumb 11.8423 -18.7127
lclavicle 3.68994e-015 -1.35174e-014
lhumerus -40.9619 5.71752 84.1326
lradius 35.6592
lwrist 4.29063
lhand -12.4817 50.9413
lfingers 7.12502
lthumb 13.5928 80.4776
rfemur -12.5304 -0.0513167 19.245
rtibia 72.5471
rfoot 1.43476 -14.1859
rtoes 10.1926
lfemur -6.43503 -3.79625 -26.6675
ltibia 20.5181
lfoot -3.92418 0.287153
ltoes -7.15016
422
root 0.653725 18.3343 40.6269 -8.05292 -4.32469 2.89929
lowerback 16.8424 0.387196 -2.63598
upperback 0.549426 0.160028 1.71574
thorax -8.89098 0.227293 3.31801
lowerneck -10.0166 0.037718 -2.45059
upperneck 31.9151 1.39516 -2.555
head 12.1647 0.00183826 -0.356224
rclavicle -2.37299e-015 5.56597e-015
rhumerus -35.4636 -13.8518 -74.3678
rradius 26.1649
rwrist 4.34362
rhand -13.9483 10.7236
rfingers 7.12502
rthumb 12.1789 -18.9018
lclavicle -2.37299e-015 5.56597e-015
lhumerus -40.8594 5.60567 83.9828
lradius 36.0009
lwrist 4.25342
lhand -11.9747 51.2316
lfingers 7.12502
lthumb 14.0814 80.7345
rfemur -13.5709 -0.409606 19.3193
rtibia 72.9652
rfoot 0.437427 -14.611
rtoes 11.3791
lfemur -5.95455 -3.91989 -26.6814
ltibia 20.5902
lfoot -4.20203 0.377267
ltoes -7.13596
423
root 0.650893 18.3315 40.7612 -8.1104 -4.11219 3.29094
lowerback 17.0967 0.302535 -3.13711
upperback 0.491756 -0.0605242 1.6664
thorax -9.07997 0.146665 3.60875
lowerneck -10.2873 0.110547 -2.46165
upperneck 32.2394 1.50207 -2.48804
head 12.3541 0.0473716 -0.317427
rclavicle 1.82633e-015 1.35174e-014
rhumerus -35.695 -13.6439 -74.5085
rradius 26.4377
rwrist 4.12762
rhand -13.9382 10.6145
rfingers 7.12502
rthumb 12.1887 -19.0104
lclavicle 1.82633e-015 1.35174e-014
lhumerus -40.7061 5.35448 84.0411
lradius 36.1175
lwrist 5.07283
lhand -12.7622 50.9274
lfingers 7.12502
lthumb 13.3224 80.4815
rfemur -14.7542 -0.918595 18.7948
rtibia 73.2682
rfoot -0.426837 -14.6245
rtoes 11.2011
lfemur -5.42939 -3.8614 -27.2299
ltibia 20.6801
lfoot -4.65034 0.228953
ltoes -7.36072
424
root 0.65344 18.3163 40.8945 -8.15021 -3.89775 3.53231
lowerback 17.2398 0.218191 -3.35911
upperback 0.324445 -0.222248 1.6517
thorax -9.33012 0.0873951 3.76444
lowerneck -9.63322 0.140473 -2.66337
upperneck 32.0237 1.49979 -2.31693
head 12.1255 0.0526841 -0.216748
rclavicle -7.55382e-015 1.43125e-014
rhumerus -36.3253 -13.5287 -74.3719
rradius 26.7497
rwrist 4.12051
rhand -13.8566 10.5714
rfingers 7.12502
rthumb 12.2674 -19.0487
lclavicle -7.55382e-015 1.43125e-014
lhumerus -41.0137 5.17673 84.0933
lradius 36.5626
lwrist 5.78049
lhand -13.4617 50.6285
lfingers 7.12502
lthumb 12.6481 80.2255
rfemur -15.8184 -1.42074 18.4332
rtibia 73.3779
rfoot -1.05282 -14.4832
rtoes 11.5842
lfemur -4.70527 -3.63987 -27.6293
ltibia 20.6718
lfoot -5.27128 -0.00151684
ltoes -9.0053
425
root 0.66505 18.3153 41.0277 -8.08106 -3.5045 4.01596
lowerback 17.2116 0.122188 -3.64657
upperback 0.00813588 -0.419687 1.53161
thorax -9.64493 0.0167249 3.85142
lowerneck -8.41655 0.101338 -2.71215
upperneck 31.6463 1.40592 -2.38723
head 11.7216 0.0131653 -0.245371
rclavicle -1.32813e-014 3.18055e-015
rhumerus -37.333 -13.5158 -74.0337
rradius 27.2364
rwrist 4.13132
rhand -13.5984 10.2163
rfingers 7.12502
rthumb 12.5163 -19.3889
lclavicle -1.32813e-014 3.18055e-015
lhumerus -41.5541 4.86866 84.1717
lradius 37.0383
lwrist 6.14343
lhand -13.5842 50.4783
lfingers 7.12502
lthumb 12.53 80.0826
rfemur -16.8573 -2.14284 17.6757
rtibia 73.2466
rfoot -1.52216 -14.0941
rtoes 12.0993
lfemur -4.30479 -3.62683 -28.3284
ltibia 20.5922
lfoot -5.61854 -0.292626
ltoes -8.74021
426
root 0.659189 18.3126 41.169 -8.0706 -3.38421 4.27998
lowerback 17.0227 0.0422947 -3.98988
upperback 0.362709 -0.590056 1.46557
thorax -9.12905 -0.0711027 4.00791
lowerneck -9.59647 0.0893574 -2.48524
upperneck 31.8368 1.44964 -2.55884
head 12.0452 0.0242845 -0.344534
rclavicle 1.10325e-014 -6.36111e-015
rhumerus -36.8378 -13.5493 -74.4633
rradius 27.6985
rwrist 3.9343
rhand -13.5249 9.54847
rfingers 7.12502
rthumb 12.5871 -20.0523
lclavicle 1.10325e-014 -6.36111e-015
lhumerus -40.7127 4.58975 84.1938
lradius 37.2947
lwrist 6.69452
lhand -13.8273 50.2463
lfingers 7.12502
lthumb 12.2956 79.8648
rfemur -17.8368 -2.48421 17.373
rtibia 72.9319
rfoot -2.27005 -13.8501
rtoes 12.019
lfemur -4.14262 -3.52071 -28.6713
ltibia 20.9937
lfoot -6.1549 -0.410053
ltoes -7.91274
427
root 0.663708 18.2932 41.3301 -8.27029 -2.93685 4.89628
lowerback 16.9855 -0.112177 -4.52916
upperback 0.289527 -0.919236 1.26384
thorax -9.15202 -0.207847 4.1765
lowerneck -9.22761 0.128516 -2.37953
upperneck 31.938 1.4742 -2.58294
head 12.0099 0.0450207 -0.370194
rclavicle -1.19581e-015 0
rhumerus -37.4112 -13.3911 -74.5757
rradius 28.185
rwrist 3.84592
rhand -13.5042 9.07892
rfingers 7.12502
rthumb 12.6072 -20.5206
lclavicle -1.19581e-015 0
lhumerus -41.1734 4.2382 84.1591
lradius 37.98
lwrist 6.98982
lhand -13.5891 50.5685
lfingers 7.12502
lthumb 12.5253 80.1731
rfemur -18.3071 -3.21666 16.4451
rtibia 72.461
rfoot -3.61065 -13.1543
rtoes 10.8665
lfemur -3.50071 -3.39343 -29.5547
ltibia 21.4063
lfoot -6.91597 -0.549764
ltoes -8.04731
